<svg id="Layer_1" data-name="Layer 1" xmlns="http://www.w3.org/2000/svg" viewBox="0 0 141.73 141.73"><title>1</title><path d="M128.57,54.15c0-3.49,0-6.81,0-9.9,0-13.88-24.7-25-32.27-28.14-1-.39-1.92-.78-2.88-1.15h0A222,222,0,0,0,46.75,2.85a5.55,5.55,0,0,0-5.59,2.64c-2,3.35-2.18,7-2.34,10.22s-.34,5-1.29,5.6C28.59,27.38,27.11,35.9,25.8,43.41c-.39,2.24-.76,4.36-1.31,6.4-1.51,5.65,1.07,9.8,2.77,12.55a15.33,15.33,0,0,1,1.56,3c.44,1.42.42,1.46-.16,2.57a13.51,13.51,0,0,0-1.79,6.53c0,3,1.09,6,2.18,8.92a28.16,28.16,0,0,1,1.81,6.15c.1,1.08.1,2.24.11,3.47,0,3.54,0,8,2.74,12.1,2.58,4,3.37,7.58,4.38,12.17.26,1.19.53,2.4.83,3.63,1.4,5.74,7,13.34,13.59,15.62a52,52,0,0,0,17,2.85,57.34,57.34,0,0,0,32.72-10.64c16-11.17,25.84-29,26.25-47.8C128.68,71.65,128.63,62.35,128.57,54.15Z"/></svg>