<svg id="Layer_1" data-name="Layer 1" xmlns="http://www.w3.org/2000/svg" viewBox="0 0 141.73 141.73"><title>10</title><path d="M135.11,62.76c-3.24-3-4.07-6.37-2.85-11.78,2.33-10.38-3.55-19.8-8.07-23.6l0,0L104.86,11.6c-.94-.76-1.8-1.59-2.63-2.4C99.61,6.67,96.64,3.8,91.9,4.09H88.6C71.54,4,56.83,4,40.25,12.44a34,34,0,0,1-4,1.81c-1.13.39-2.22.74-3.26,1.08-7,2.28-13,4.25-17.74,13-3.91,7.2-4.81,15.62-5.61,23.05-.13,1.17-.26,2.34-.39,3.49C8,65.93,8.26,77.17,8.54,88c.06,2.69.13,5.37.18,8a15,15,0,0,0,1.3,6.82,15,15,0,0,0,3.07,3.86c5,4.88,10.59,10.42,16,15.94,6.19,6.32,14.69,15,27.51,14.6,3.5-.11,7,0,10.69.15,2.77.1,5.56.21,8.37.21,8.62,0,17.35-1,25.77-5.87,17.77-10.35,24.83-27.55,31.66-44.18,1.11-2.7,2.26-5.49,3.42-8.18C138.23,75.49,139.23,66.53,135.11,62.76Z"/></svg>