<svg id="Layer_1" data-name="Layer 1" xmlns="http://www.w3.org/2000/svg" viewBox="0 0 141.73 141.73"><title>2</title><path d="M108.11,33.53C103.72,29,99.1,24.91,94.64,21c-1.89-1.67-3.72-3.29-5.45-4.88A4.57,4.57,0,0,0,87.12,15l-17.6-3.92a4.5,4.5,0,0,0-1-.1C55.6,11,50.1,12.5,40.93,22a80.18,80.18,0,0,1-7.41,6.52C26.92,33.87,20.1,39.38,18,49.76c-2.32,11.31-.57,24.7,5.22,39.8a109.22,109.22,0,0,0,11.64,22c1,1.43,1.88,3,2.86,4.64,4,6.82,9.05,15.32,19.45,16.32q4.23.41,8.25.41c24.25,0,42.22-11.2,52.23-32.71C128.16,77.57,124.25,50.16,108.11,33.53Z"/></svg>