<svg id="Layer_1" data-name="Layer 1" xmlns="http://www.w3.org/2000/svg" viewBox="0 0 141.73 141.73"><title>3</title><path d="M111.85,32c-6.23-8.38-15-11.52-22.76-14.28-5.44-2-10.59-3.78-14.64-7.18A4.53,4.53,0,0,0,73,9.73L57.27,4.27a4.5,4.5,0,0,0-5.36,2c-.49.84-.49.84-1.89.9A9.84,9.84,0,0,0,45.89,8C25.85,18,17,32.52,19,52.53a133.88,133.88,0,0,1,.24,15.84c-.08,3.44-.17,7-.09,10.53A93.32,93.32,0,0,0,24,107.52c6,17,21.56,29.26,40.7,31.91l.24,0a56.85,56.85,0,0,0,8.56.65c13,0,25-4.52,33.83-12.91A83.66,83.66,0,0,0,123.75,105a4.45,4.45,0,0,0,.51-2.09c0-1.84-.07-3.89-.15-6.07a114.66,114.66,0,0,1,.3-17.29C126.53,61.75,122.42,46.2,111.85,32Z"/></svg>