<svg id="Layer_1" data-name="Layer 1" xmlns="http://www.w3.org/2000/svg" viewBox="0 0 141.73 141.73"><title>4</title><path d="M128.11,75.84c-.49-5.72-2.3-16.65-8.79-25.44-3.79-5.13-6.52-10.8-9.16-16.28-4.31-9-8.77-18.21-17.85-25.56a10.36,10.36,0,0,0-3-1.83h0L89,6.63a10,10,0,0,0-5-.06C72.27,8.73,60.46,10.84,50.3,12.64c-1.75.31-3.79.53-5.95.75-6,.63-12.72,1.34-17.85,4.54-12,7.45-12,23.15-11.95,34.61v1.8A198.19,198.19,0,0,0,16.21,82c2.27,16.45,5.87,24,16.75,35.25a56.12,56.12,0,0,1,5.22,6.69c4.55,6.42,10.2,14.45,21,14.35,2.1,0,4.17,0,6.22,0h3.89c18.38,0,35.58-1.16,48.48-19.94C125.67,106.81,129.45,91.31,128.11,75.84Z"/></svg>