<svg id="Layer_1" data-name="Layer 1" xmlns="http://www.w3.org/2000/svg" viewBox="0 0 141.73 141.73"><title>5</title><path d="M113.2,47.29a86.66,86.66,0,0,0-31.42-25c-14.94-6.88-30.41-6.46-42.46,1.15C27.6,30.89,20.77,44.2,20.6,60c0,1.78,0,3.57,0,5.36s0,3.49,0,5.23c-.3,27.21,11.12,46.59,33,56.07a11.88,11.88,0,0,0,4.78,1.18h.34a11.77,11.77,0,0,0,4.69-1.34c1.15-.52,2.93-1.15,4.81-1.82,5.2-1.83,11.08-3.91,14.15-7.24,4.1-4.46,8.59-8.79,12.93-13,5.69-5.5,11.58-11.19,16.86-17.38C123.11,74.26,123.47,60.14,113.2,47.29Z"/></svg>