<svg id="Layer_1" data-name="Layer 1" xmlns="http://www.w3.org/2000/svg" viewBox="0 0 141.73 141.73"><title>7</title><path d="M140.91,94.37c-.4-4.37-.46-8.73-.53-13.35-.11-8.32-.24-16.93-2.48-25.49a30.67,30.67,0,0,0-15.59-19l-.19-.1-6-3C99.62,25.18,82.58,16.65,65.78,8.34A32.15,32.15,0,0,0,60.06,6c-6.43-1.77-13.26,0-19.87,1.63A60,60,0,0,1,30.71,9.5,29.9,29.9,0,0,0,3.14,38.22l0,.94c-.46,12.13-.93,24.69,1.4,36.76,1.59,8.24,5.5,17.55,9.38,26.38,9.82,22.38,17,30,40.44,31a85.57,85.57,0,0,0,9.24-.27c6.23-.4,12.11-.79,17.06,1.89a27.28,27.28,0,0,0,13.06,3.71h.57c11.79-.32,28-3.11,38.19-14.6C139.17,116.49,142,106.5,140.91,94.37Z"/></svg>