<svg id="Layer_1" data-name="Layer 1" xmlns="http://www.w3.org/2000/svg" viewBox="0 0 141.73 141.73"><title>8</title><path d="M125.4,52.08a4.08,4.08,0,0,0-.32-.58c-1.24-1.86-2.25-3.73-3.31-5.7-2.15-4-4.36-8.1-8.55-12.18s-8.55-7.75-12.83-11.36c-1.6-1.34-3.18-2.68-4.76-4a13.42,13.42,0,0,0-5.07-3.07,13.44,13.44,0,0,0-4.43-.38c-.49,0-1,0-1.31,0-2.18-.16-4.44-2.34-6.75-4.75a10.9,10.9,0,0,0-4.89-3.28l-.07,0-.11,0a10.52,10.52,0,0,0-4.46,0l-1.48.23c-14,2.25-29.94,4.8-41,17C20.18,30.41,14.7,57.16,13.94,61.81c-1.53,9.33.94,17.49,3.32,25.39a75,75,0,0,1,3.24,13.62c1.09,10.26,10.58,20.83,19.1,27.3,7.49,5.69,15.08,8.58,22.35,8.58a26.71,26.71,0,0,0,8.17-1.27c21.79-7,41.88-15.15,48.23-38.53.24-.88.48-1.78.72-2.68,1.65-6.21,3.36-12.63,6.16-17C131.67,67.12,129.59,61,125.4,52.08Z"/></svg>