<svg id="Layer_1" data-name="Layer 1" xmlns="http://www.w3.org/2000/svg" viewBox="0 0 141.73 141.73"><title>9</title><path d="M116.08,39C105.85,18.4,75.94,5.6,57.9,14.05c-1.53.72-3.06,1.41-4.58,2.1-8.77,4-17.85,8.12-25.49,15.73a18.82,18.82,0,0,0-5,7.4c-.1.32-.19.64-.27,1A22.86,22.86,0,0,0,22,45.58q-.07,4.89-.17,9.78c-.25,13.48-.51,27.43.59,41.19,1.28,15.9,9.37,27.52,25.48,36.57a38.88,38.88,0,0,0,19.3,5.45c8.84,0,16.53-3.42,23.28-7.26,10.88-6.2,20.61-22,26-42.36C121.81,69.25,121.63,50.09,116.08,39Z"/></svg>